<?xml version="1.0" encoding="UTF-8"?>
<!DOCTYPE svg PUBLIC "-//W3C//DTD SVG 1.1//EN" "http://www.w3.org/Graphics/SVG/1.1/DTD/svg11.dtd">
<svg xmlns="http://www.w3.org/2000/svg" version="1.1" width="1646px" height="268px" style="shape-rendering:geometricPrecision; text-rendering:geometricPrecision; image-rendering:optimizeQuality; fill-rule:evenodd; clip-rule:evenodd" xmlns:xlink="http://www.w3.org/1999/xlink">
<g><path style="opacity:1" fill="#fee500" d="M 27.5,33.5 C 557.167,33.3333 1086.83,33.5 1616.5,34C 1617.13,34.7504 1617.63,35.5838 1618,36.5C 1618.67,101.167 1618.67,165.833 1618,230.5C 1617.63,231.416 1617.13,232.25 1616.5,233C 1086.83,233.667 557.167,233.667 27.5,233C 26.8742,232.25 26.3742,231.416 26,230.5C 25.3333,165.833 25.3333,101.167 26,36.5C 26.5133,35.4734 27.0133,34.4734 27.5,33.5 Z"/></g>
<g><path style="opacity:1" fill="#685102" d="M 945.5,60.5 C 952.755,60.1868 959.921,60.5201 967,61.5C 967.5,98.8318 967.667,136.165 967.5,173.5C 960.833,173.5 954.167,173.5 947.5,173.5C 947.579,170.729 947.079,168.063 946,165.5C 931.821,178.693 917.821,178.36 904,164.5C 896.343,151.879 893.676,138.212 896,123.5C 899.954,99.1712 913.787,89.6712 937.5,95C 940.266,96.4669 942.766,98.3002 945,100.5C 945.5,87.1708 945.667,73.8375 945.5,60.5 Z"/></g>
<g><path style="opacity:1" fill="#685102" d="M 1262.5,62.5 C 1273.37,61.8679 1278.2,66.8679 1277,77.5C 1273.39,84.0743 1267.89,86.241 1260.5,84C 1253.12,79.7325 1251.62,73.8992 1256,66.5C 1258.01,64.7518 1260.18,63.4185 1262.5,62.5 Z"/></g>
<g><path style="opacity:1" fill="#685102" d="M 1021.5,66.5 C 1039.87,66.0824 1058.21,66.5824 1076.5,68C 1097.56,74.4155 1106.39,88.5822 1103,110.5C 1099.16,124.523 1089.99,132.689 1075.5,135C 1065.2,136.226 1054.87,136.726 1044.5,136.5C 1044.5,148.833 1044.5,161.167 1044.5,173.5C 1036.83,173.5 1029.17,173.5 1021.5,173.5C 1021.5,137.833 1021.5,102.167 1021.5,66.5 Z"/></g>
<g><path style="opacity:1" fill="#685102" d="M 77.5,66.5 C 87.4163,66.181 97.2496,66.5144 107,67.5C 115.803,92.9091 124.803,118.242 134,143.5C 143.141,117.91 151.974,92.2437 160.5,66.5C 170.416,66.181 180.25,66.5144 190,67.5C 190.5,102.832 190.667,138.165 190.5,173.5C 182.833,173.5 175.167,173.5 167.5,173.5C 167.728,148.15 168.228,122.816 169,97.5C 160.128,122.615 150.962,147.615 141.5,172.5C 136.208,173.495 130.875,173.828 125.5,173.5C 116.837,147.679 107.67,122.012 98,96.5C 99.1181,122.121 99.6181,147.787 99.5,173.5C 92.1667,173.5 84.8333,173.5 77.5,173.5C 77.5,137.833 77.5,102.167 77.5,66.5 Z"/></g>
<g><path style="opacity:1" fill="#685102" d="M 321.5,66.5 C 344.833,66.5 368.167,66.5 391.5,66.5C 391.5,72.5 391.5,78.5 391.5,84.5C 375.589,84.1754 359.756,84.5088 344,85.5C 343.184,94.4117 343.35,103.245 344.5,112C 358.496,112.5 372.496,112.667 386.5,112.5C 386.808,118.425 386.475,124.259 385.5,130C 371.504,130.5 357.504,130.667 343.5,130.5C 343.5,144.833 343.5,159.167 343.5,173.5C 336.167,173.5 328.833,173.5 321.5,173.5C 321.5,137.833 321.5,102.167 321.5,66.5 Z"/></g>
<g><path style="opacity:1" fill="#685102" d="M 731.5,66.5 C 755.5,66.5 779.5,66.5 803.5,66.5C 803.5,72.5 803.5,78.5 803.5,84.5C 787.163,84.3334 770.83,84.5001 754.5,85C 753.518,93.081 753.184,101.248 753.5,109.5C 767.504,109.333 781.504,109.5 795.5,110C 796.475,115.741 796.808,121.575 796.5,127.5C 782.167,127.5 767.833,127.5 753.5,127.5C 753.5,136.833 753.5,146.167 753.5,155.5C 770.167,155.5 786.833,155.5 803.5,155.5C 803.5,161.5 803.5,167.5 803.5,173.5C 779.5,173.5 755.5,173.5 731.5,173.5C 731.5,137.833 731.5,102.167 731.5,66.5 Z"/></g>
<g><path style="opacity:1" fill="#685102" d="M 625.5,74.5 C 632.508,74.3337 639.508,74.5004 646.5,75C 647.478,81.4102 647.811,87.9102 647.5,94.5C 651.833,94.5 656.167,94.5 660.5,94.5C 660.5,99.5 660.5,104.5 660.5,109.5C 656.167,109.5 651.833,109.5 647.5,109.5C 647.333,124.504 647.5,139.504 648,154.5C 648.833,155.333 649.667,156.167 650.5,157C 654.091,157.789 657.591,157.622 661,156.5C 661.499,162.157 661.666,167.824 661.5,173.5C 651.753,176.929 642.42,176.095 633.5,171C 629.051,167.603 626.551,163.103 626,157.5C 625.5,141.503 625.333,125.503 625.5,109.5C 621.5,109.5 617.5,109.5 613.5,109.5C 613.5,104.5 613.5,99.5 613.5,94.5C 617.5,94.5 621.5,94.5 625.5,94.5C 625.5,87.8333 625.5,81.1667 625.5,74.5 Z"/></g>
<g><path style="opacity:1" fill="#685102" d="M 1456.5,74.5 C 1463.51,74.3337 1470.51,74.5004 1477.5,75C 1478.48,81.4102 1478.81,87.9102 1478.5,94.5C 1482.83,94.5 1487.17,94.5 1491.5,94.5C 1491.5,99.5 1491.5,104.5 1491.5,109.5C 1487.17,109.5 1482.83,109.5 1478.5,109.5C 1478.33,124.504 1478.5,139.504 1479,154.5C 1479.83,155.333 1480.67,156.167 1481.5,157C 1485.09,157.789 1488.59,157.622 1492,156.5C 1492.5,162.157 1492.67,167.824 1492.5,173.5C 1482.75,176.929 1473.42,176.095 1464.5,171C 1460.05,167.603 1457.55,163.103 1457,157.5C 1456.5,141.503 1456.33,125.503 1456.5,109.5C 1452.5,109.5 1448.5,109.5 1444.5,109.5C 1444.5,104.5 1444.5,99.5 1444.5,94.5C 1448.5,94.5 1452.5,94.5 1456.5,94.5C 1456.5,87.8333 1456.5,81.1667 1456.5,74.5 Z"/></g>
<g><path style="opacity:1" fill="#fee500" d="M 1044.5,84.5 C 1054.32,83.9267 1063.98,84.76 1073.5,87C 1081.53,93.7561 1083.36,101.923 1079,111.5C 1075.16,115.783 1070.33,117.95 1064.5,118C 1057.84,118.5 1051.17,118.666 1044.5,118.5C 1044.5,107.167 1044.5,95.8333 1044.5,84.5 Z"/></g>
<g><path style="opacity:1" fill="#685102" d="M 435.5,92.5 C 438.579,92.2601 441.579,92.5934 444.5,93.5C 445.497,100.468 445.83,107.468 445.5,114.5C 438.533,112.871 431.866,113.704 425.5,117C 423.951,118.214 422.785,119.714 422,121.5C 421.5,138.83 421.333,156.163 421.5,173.5C 414.5,173.5 407.5,173.5 400.5,173.5C 400.5,147.167 400.5,120.833 400.5,94.5C 407.167,94.5 413.833,94.5 420.5,94.5C 420.933,97.1656 421.433,99.8323 422,102.5C 425.061,97.0688 429.561,93.7355 435.5,92.5 Z"/></g>
<g><path style="opacity:1" fill="#685102" d="M 481.5,92.5 C 496.831,90.9214 508.998,96.2547 518,108.5C 526.632,125.521 526.632,142.521 518,159.5C 510.195,169.619 499.861,174.952 487,175.5C 466.318,174.485 453.985,163.818 450,143.5C 447.723,130.224 450.056,117.891 457,106.5C 463.564,98.8077 471.73,94.141 481.5,92.5 Z"/></g>
<g><path style="opacity:1" fill="#685102" d="M 576.5,92.5 C 592.582,91.4243 602.082,98.7577 605,114.5C 605.5,134.164 605.667,153.831 605.5,173.5C 598.5,173.5 591.5,173.5 584.5,173.5C 584.667,155.83 584.5,138.164 584,120.5C 583.378,113.217 579.378,109.884 572,110.5C 566.671,110.331 562.338,112.331 559,116.5C 558.5,135.497 558.333,154.497 558.5,173.5C 551.167,173.5 543.833,173.5 536.5,173.5C 536.5,147.167 536.5,120.833 536.5,94.5C 543.5,94.5 550.5,94.5 557.5,94.5C 557.336,97.1873 557.503,99.854 558,102.5C 563.186,97.16 569.353,93.8266 576.5,92.5 Z"/></g>
<g><path style="opacity:1" fill="#685102" d="M 853.5,92.5 C 866.807,91.0603 875.974,96.3936 881,108.5C 882.444,130.122 882.944,151.788 882.5,173.5C 875.5,173.5 868.5,173.5 861.5,173.5C 861.667,155.164 861.5,136.83 861,118.5C 859.276,112.626 855.276,109.959 849,110.5C 843.671,110.331 839.338,112.331 836,116.5C 835.5,135.497 835.333,154.497 835.5,173.5C 828.5,173.5 821.5,173.5 814.5,173.5C 814.5,147.167 814.5,120.833 814.5,94.5C 821.167,94.5 827.833,94.5 834.5,94.5C 834.187,97.2469 834.52,99.9135 835.5,102.5C 840.429,97.04 846.429,93.7067 853.5,92.5 Z"/></g>
<g><path style="opacity:1" fill="#685102" d="M 1152.5,92.5 C 1155.88,92.4595 1159.21,92.7929 1162.5,93.5C 1162.67,100.175 1162.5,106.842 1162,113.5C 1158.28,113.658 1154.45,113.825 1150.5,114C 1145.08,114.131 1141.25,116.631 1139,121.5C 1138.5,138.83 1138.33,156.163 1138.5,173.5C 1131.5,173.5 1124.5,173.5 1117.5,173.5C 1117.5,147.167 1117.5,120.833 1117.5,94.5C 1124.17,94.5 1130.83,94.5 1137.5,94.5C 1137.13,97.3965 1137.63,100.063 1139,102.5C 1142.06,97.0688 1146.56,93.7355 1152.5,92.5 Z"/></g>
<g><path style="opacity:1" fill="#685102" d="M 1197.5,92.5 C 1225.67,91.6689 1240.34,105.336 1241.5,133.5C 1241.18,158.866 1228.51,172.866 1203.5,175.5C 1183.51,174.336 1171.34,164.003 1167,144.5C 1163.15,126.377 1167.98,111.21 1181.5,99C 1186.61,95.9354 1191.94,93.7688 1197.5,92.5 Z"/></g>
<g><path style="opacity:1" fill="#685102" d="M 1321.5,92.5 C 1342.4,90.5137 1355.57,99.5137 1361,119.5C 1362.23,126.445 1362.73,133.445 1362.5,140.5C 1345.83,140.5 1329.17,140.5 1312.5,140.5C 1315.02,154.446 1323.36,159.946 1337.5,157C 1342.46,155.524 1346.79,153.024 1350.5,149.5C 1353.8,153.141 1357.14,156.808 1360.5,160.5C 1352.91,170.379 1342.74,175.379 1330,175.5C 1299.85,171.979 1286.85,154.979 1291,124.5C 1294.27,107.064 1304.44,96.3971 1321.5,92.5 Z"/></g>
<g><path style="opacity:1" fill="#685102" d="M 1403.5,92.5 C 1418.96,91.3081 1430.46,97.3081 1438,110.5C 1439.63,114.688 1440.46,119.021 1440.5,123.5C 1433.83,123.5 1427.17,123.5 1420.5,123.5C 1418.86,112.372 1412.52,108.205 1401.5,111C 1397.94,112.892 1395.44,115.725 1394,119.5C 1391.49,130.736 1392.15,141.736 1396,152.5C 1400.54,157.152 1406.04,158.652 1412.5,157C 1417.76,154.995 1420.42,151.161 1420.5,145.5C 1427.17,145.5 1433.83,145.5 1440.5,145.5C 1439.33,160.175 1431.67,169.675 1417.5,174C 1387.31,177.658 1371.65,164.158 1370.5,133.5C 1370.42,110.546 1381.42,96.8796 1403.5,92.5 Z"/></g>
<g><path style="opacity:1" fill="#685102" d="M 1528.5,92.5 C 1542.28,91.1395 1553.78,95.4728 1563,105.5C 1565.5,109.485 1566.66,113.818 1566.5,118.5C 1559.49,118.666 1552.49,118.5 1545.5,118C 1544.99,113.971 1542.99,110.971 1539.5,109C 1535.5,108.333 1531.5,108.333 1527.5,109C 1521.84,112.622 1521.17,116.956 1525.5,122C 1535.15,124.999 1544.82,127.999 1554.5,131C 1567.5,139.67 1570,150.837 1562,164.5C 1554.03,171.894 1544.53,175.56 1533.5,175.5C 1517.63,175.664 1506.46,168.664 1500,154.5C 1499.5,152.527 1499.34,150.527 1499.5,148.5C 1506.17,148.5 1512.83,148.5 1519.5,148.5C 1519.88,153.756 1522.54,157.256 1527.5,159C 1531.5,159.667 1535.5,159.667 1539.5,159C 1545.06,157.542 1546.89,154.042 1545,148.5C 1544.17,147.667 1543.33,146.833 1542.5,146C 1532.78,142.821 1523.12,139.487 1513.5,136C 1500.23,127.001 1498.06,115.835 1507,102.5C 1513.22,96.9361 1520.39,93.6028 1528.5,92.5 Z"/></g>
<g><path style="opacity:1" fill="#685102" d="M 199.5,95.5 C 207.235,94.1726 215.068,94.1726 223,95.5C 227.667,110.833 232.333,126.167 237,141.5C 242.133,126.312 246.967,110.979 251.5,95.5C 259.167,94.1667 266.833,94.1667 274.5,95.5C 263.296,127.947 251.796,160.28 240,192.5C 232.524,204.17 222.024,208.17 208.5,204.5C 208.171,198.794 208.505,193.128 209.5,187.5C 213.169,188.008 216.836,187.508 220.5,186C 223.734,182.367 226.068,178.201 227.5,173.5C 218.333,147.326 209,121.326 199.5,95.5 Z"/></g>
<g><path style="opacity:1" fill="#685102" d="M 1255.5,94.5 C 1262.5,94.5 1269.5,94.5 1276.5,94.5C 1276.67,124.835 1276.5,155.168 1276,185.5C 1272.56,199.093 1263.72,205.759 1249.5,205.5C 1245.8,205.657 1242.3,204.991 1239,203.5C 1239.56,199.95 1239.4,196.45 1238.5,193C 1238.43,187.616 1240.93,186.116 1246,188.5C 1251.67,188.167 1254.67,185.167 1255,179.5C 1255.5,151.169 1255.67,122.835 1255.5,94.5 Z"/></g>
<g><path style="opacity:1" fill="#fee500" d="M 481.5,110.5 C 492.346,108.514 499.179,112.847 502,123.5C 504.281,133.194 503.281,142.528 499,151.5C 491.956,158.689 484.289,159.356 476,153.5C 468.72,140.515 468.72,127.515 476,114.5C 477.812,113.023 479.645,111.69 481.5,110.5 Z"/></g>
<g><path style="opacity:1" fill="#fee500" d="M 927.5,110.5 C 935.045,108.864 940.878,111.197 945,117.5C 945.667,128.5 945.667,139.5 945,150.5C 939.653,157.441 932.819,159.274 924.5,156C 918.789,150.041 916.122,142.874 916.5,134.5C 916.72,127.84 918.22,121.507 921,115.5C 922.805,113.174 924.972,111.508 927.5,110.5 Z"/></g>
<g><path style="opacity:1" fill="#fee500" d="M 1198.5,110.5 C 1209.82,108.656 1216.65,113.323 1219,124.5C 1220.37,133.816 1219.37,142.816 1216,151.5C 1209.79,158.009 1202.62,159.175 1194.5,155C 1188.19,146.903 1186.02,137.737 1188,127.5C 1188.5,119.801 1192,114.134 1198.5,110.5 Z"/></g>
<g><path style="opacity:1" fill="#fee500" d="M 1322.5,110.5 C 1334.95,108.617 1341.28,113.95 1341.5,126.5C 1331.83,126.5 1322.17,126.5 1312.5,126.5C 1312.83,119.152 1316.16,113.819 1322.5,110.5 Z"/></g>
<g><path style="opacity:1" fill="#685102" d="M 671.5,119.5 C 685.5,119.5 699.5,119.5 713.5,119.5C 713.5,125.167 713.5,130.833 713.5,136.5C 699.829,136.667 686.163,136.5 672.5,136C 671.527,130.593 671.193,125.093 671.5,119.5 Z"/></g>
</svg>
